<?xml version="1.0" encoding="UTF-8"?>
<svg id="Layer_2" data-name="Layer 2" xmlns="http://www.w3.org/2000/svg" viewBox="0 0 1024 1024">
  <defs>
    <style>
      .cls-1 {
        font-size: 197.85px;
      }

      .cls-1, .cls-2, .cls-3, .cls-4, .cls-5, .cls-6 {
        fill: #231f20;
      }

      .cls-1, .cls-2, .cls-3, .cls-5, .cls-6 {
        font-family: Kage-SemiBold, Kage-SemiBold;
        font-weight: 600;
      }

      .cls-2 {
        font-size: 503.94px;
      }

      .cls-3 {
        font-size: 183.62px;
      }

      .cls-7 {
        fill: #000;
      }

      .cls-7, .cls-4 {
        stroke-width: 0px;
      }

      .cls-5 {
        font-size: 191.11px;
      }

      .cls-6 {
        font-size: 185.86px;
      }
    </style>
  </defs>
  <path class="cls-7" d="M262.35,443.02c-3.79-.01-7.58-.01-11.37-.01-8.3,0-16.82.48-25.07-.03-.43,0-3.45,12.13-3.8,13.33-1.39,4.64-2.78,9.29-3.66,14.06-.49,2.59-.79,5.33.08,7.81.84,2.38,3.66,4.59,6.2,4.59-.92.01-3.44.06-4.48.06-2.17,0-4.34,0-6.5,0-2.88.01-6.12.05-9.01.06,3.37-5.73,7.02-11.23,9.15-17.57,2.02-5.98,3.36-12.15,4.93-18.24,3.91-15.16,7.82-30.33,11.73-45.49,2.13-8.29,7.14-25.51,7.14-25.51.05.06,2.07,1.91,3.46,3.78.23.31.3.72.2,1.1-4.28,16.89-7.99,31.52-12.27,48.47-.6,2.36-1.15,5.04.15,7.1,2.88,4.57,13.72,2.59,18.41,2.59h13.58c-.9-2.97-1.79-5.94-2.69-8.91-1.3-4.31-2.6-8.62-3.9-12.92-1.44-4.77-2.88-9.54-4.32-14.3-1.21-4.03-2.43-8.05-3.64-12.07-1.07-3.53-2.03-7.15-3.95-10.34-1.18-1.95-2.72-3.69-4.48-5.18-1.01-.85-2.1-1.63-3.23-2.3-.43-.26-.87-.5-1.22-.87,1.77-.91,3.77-.84,5.7-.81,2.15.03,4.29,0,6.43-.02,3.11-.02,6.22-.05,9.34-.07,1.14,0,2.76.06,3.9.09,2.78.06,6.36-.53,8.53,1.61,1.58,1.55,1.91,4.13,2.52,6.19.62,2.1,1.24,4.21,1.86,6.31,3.34,11.3,6.68,22.6,10.02,33.9,3.56,12.02,7.14,24.05,10.73,36.07,1.52,5.09,2.62,10.55,4.71,15.44.7,1.65,1.87,4.05,3.86,6.73,1.72,2.3,3.98,4.12,5.3,5.27-16.12.08-32.76.03-48.88.11,1.48-.28,3.91-.93,6.41-2.63.84-.56,3.46-2.17,4.66-4.79,1.62-3.54.74-7.81-.3-11.39-.12-.4-6.23-21.23-6.23-21.23Z"/>
  <g>
    <path class="cls-7" d="M401.89,483.23l-24.25-.21c-2.71-.03-4.88-2.26-4.82-4.97l.08-3.64s-1.72,2.11-9.68,6.25l-.56-2.03c6.65-1.73,9.67-7.08,9.67-7.08.26-16.43.51-32.86.76-49.29v-1.2c.01-2.78-.7-4.96-2.03-6.77l2.33-.14.38-28.51s.92-8.66-.92-13.67c0,0,15.78-.84,24.31-5.47l.2,109.14s.9,6.35,4.53,7.59Z"/>
    <path class="cls-7" d="M373.39,414.15l-2.33.14c-1.69-2.33-4.38-4.05-7.85-5.64-4.51-2.05-9.87.04-9.87.04-5.5,2.36-6.51,7.08-6.51,7.08-.71,2.52-1.35,5.19-1.9,8.01-1.94,9.89-2.18,18.89-1.72,26.46,0,0-.38,15.03,3.62,21.7,4,6.66,6.85,6.66,6.85,6.66,3.52.83,6.5.68,8.98.03l.56,2.03c-.53.27-1.08.56-1.67.85-9.39,4.69-17.6,3.02-17.6,3.02,0,0-7.21-1.51-11.24-3.86-4.02-2.35-6.54-6.04-8.72-10.23s-4.86-19.11-4.69-24.14.67-11.86,2.18-20.41c.7-3.97,1.76-7.01,3-9.51.76-1.54,2.24-4.58,4.71-7.14,6.96-7.2,17.89-6.68,21.27-6.52,3.18.15,7.13.76,12.79,3.27,6.24,2.76,8.97,5.9,10.14,8.16Z"/>
  </g>
  <path class="cls-7" d="M480.53,406.46c13.08,6.95,17.96,23.27,17.94,37.14-.01,4.38-.48,8.77-1.55,13.01-1.73,6.85-4.72,13.59-9.86,18.43-14.13,13.3-47.47,13.67-60.98-.77-6.04-6.45-8.15-15.62-8.99-24.41-1.01-10.44-.29-21.83,4.86-31.2,5.22-9.5,15.3-14.9,26.29-16.77,11.19-1.91,23.34-.18,32.29,4.57ZM473.92,463.21c1.59-7.7.98-16.32.94-24.13-.05-9.17.98-20.9-5.36-28.37-1.65-1.94-3.79-3.46-6.14-4.43-7.18-2.96-15.18-.34-19.02,6.44-4.83,8.54-4.26,19.63-4.38,29.1-.14,10.63,1.35,21.53,4.45,31.72.63,2.07,1.62,4.12,3.31,5.47,4.43,3.56,14.88,3.49,19.51.4,2-1.33,3.38-3.45,4.25-5.69,1.29-3.33,1.72-7.03,2.44-10.51Z"/>
  <g>
    <path class="cls-7" d="M421.92,629.5c6.63-1.73,9.66-7.07,9.66-7.07.25-16.44.51-32.87.76-49.3v-1.2c0-2.78-.71-4.97-2.03-6.78l2.33-.13.37-28.51s.93-8.66-.91-13.67c0,0,15.78-.84,24.31-5.47l.2,109.14s.89,6.35,4.53,7.59l-24.26-.21c-2.71-.02-4.87-2.26-4.81-4.96l.08-3.65s-1.72,2.12-9.68,6.25l-.55-2.03Z"/>
    <path class="cls-7" d="M430.31,565.15c-1.7-2.33-4.39-4.05-7.86-5.63-4.5-2.05-9.86.04-9.86.04-5.5,2.36-6.51,7.08-6.51,7.08-.71,2.52-1.36,5.2-1.91,8.01-1.93,9.89-2.18,18.89-1.71,26.46,0,0-.38,15.04,3.62,21.7,3.99,6.66,6.85,6.66,6.85,6.66,3.52.83,6.51.68,8.99.03l.55,2.03c-.53.27-1.08.56-1.67.85-9.39,4.69-17.61,3.02-17.61,3.02,0,0-7.21-1.51-11.23-3.86s-6.54-6.03-8.72-10.23c-2.18-4.19-4.86-19.11-4.69-24.14.16-5.03.67-11.86,2.18-20.41.7-3.97,1.76-7.01,3-9.51.76-1.54,2.23-4.57,4.71-7.14,6.96-7.2,17.89-6.68,21.27-6.52,3.17.16,7.12.76,12.78,3.27,6.25,2.76,8.97,5.91,10.15,8.16l-2.33.13Z"/>
  </g>
  <g>
    <path class="cls-7" d="M571.1,626.7s-1.72,2.12-9.68,6.25l-.55-2.03c6.63-1.73,9.66-7.07,9.66-7.07.25-16.44.51-32.87.76-49.3v-1.2c0-2.78-.71-4.97-2.03-6.78l2.33-.13.37-28.51s.93-8.66-.91-13.67c0,0,15.78-.84,24.31-5.47l.2,109.14s.89,6.35,4.53,7.59l-24.26-.21c-2.71-.02-4.87-2.26-4.81-4.96l.08-3.65Z"/>
    <path class="cls-7" d="M559.75,633.8c-9.39,4.69-17.61,3.02-17.61,3.02,0,0-7.21-1.51-11.23-3.86-4.02-2.35-6.54-6.03-8.72-10.23-2.18-4.19-4.86-19.11-4.69-24.14.16-5.03.67-11.86,2.18-20.41.7-3.97,1.76-7.01,3-9.51.76-1.54,2.23-4.57,4.71-7.14,6.96-7.2,17.89-6.68,21.27-6.52,3.17.16,7.12.76,12.78,3.27,6.25,2.76,8.97,5.91,10.15,8.16l-2.33.13c-1.7-2.33-4.39-4.05-7.86-5.63-4.5-2.05-9.86.04-9.86.04-5.5,2.36-6.51,7.08-6.51,7.08-.71,2.52-1.36,5.2-1.91,8.01-1.93,9.89-2.18,18.89-1.71,26.46,0,0-.38,15.04,3.62,21.7,3.99,6.66,6.85,6.66,6.85,6.66,3.52.83,6.51.68,8.99.03l.55,2.03c-.53.27-1.08.56-1.67.85Z"/>
  </g>
  <path class="cls-4" d="M510.21,412.06v-1.65c12.52,0,23.46-3.16,32.81-9.49v16.51c2.06-4.54,5.37-8.46,9.91-11.76,4.54-3.3,9.15-4.95,13.83-4.95,7.15,0,12.79,3.79,16.92,11.35,4.13,7.57,6.19,18.51,6.19,32.81v1.44c-.14,14.31-3.54,25.35-10.22,33.12-6.67,7.77-14.14,11.66-22.39,11.66-6.88,0-11.63-2.13-14.24-6.4v33.43c0,2.2,2.27,3.3,6.81,3.3v1.65h-39.62v-1.65c4.68,0,7.02-1.1,7.02-3.3v-102.57c0-2.34-2.34-3.51-7.02-3.51ZM544.67,483.26c1.1,2.34,3.3,3.51,6.6,3.51,2.06,0,4.06-1.03,5.98-3.1,1.93-2.06,3.68-5.95,5.26-11.66,1.58-5.71,2.37-12.83,2.37-21.36v-3.71c0-7.7-.41-14.51-1.24-20.43-.83-5.91-2-10.22-3.51-12.9-1.52-2.68-3.3-4.02-5.37-4.02-3.3,0-6.09,1.69-8.36,5.06-2.27,3.37-3.41,6.91-3.41,10.63v47.67c0,4.68.55,8.12,1.65,10.32Z"/>
  <text class="cls-1" transform="translate(607.28 483.73)"><tspan x="0" y="0">t</tspan></text>
  <text class="cls-5" transform="translate(666.36 485.45) scale(1.04 1)"><tspan x="0" y="0">e</tspan></text>
  <text class="cls-5" transform="translate(70.96 636) scale(1.49 1)"><tspan x="0" y="0">C</tspan></text>
  <text class="cls-6" transform="translate(188.6 636.12) scale(1.18 1)"><tspan x="0" y="0">a</tspan></text>
  <text class="cls-3" transform="translate(281.58 635.26) scale(1.13 1)"><tspan x="0" y="0">n</tspan></text>
  <text class="cls-3" transform="translate(464.71 633.42) scale(1.13 1)"><tspan x="0" y="0">i</tspan></text>
  <text class="cls-3" transform="translate(606.72 635.27) scale(1.13 1)"><tspan x="0" y="0">a</tspan></text>
  <text class="cls-3" transform="translate(690.73 635) scale(1.13 1)"><tspan x="0" y="0">t</tspan></text>
  <text class="cls-2" transform="translate(771.12 634.64)"><tspan x="0" y="0">1</tspan></text>
</svg>